# xmcd
#
# Track frame offsets: 
#        150
#        17989
#        38691
#        66143
#        90583
#        105860
#        138412
#        153814
#        176008
#        204443
#        238420
#        260972
#
# Disc length: 4227 seconds
#
# Revision: 2
# Processed by: cddbd v1.4PL0 Copyright (c) Steve Scherf et al.
# Submitted via: ExactAudioCopy v0.90b4
#
DISCID=9f10810c
DTITLE=PAGE Jimmy - Blues and Ballads
DYEAR=1900
DGENRE=Hard Rock
TTITLE0=To Gether
TTITLE1=You've Lost That Lovin' Feeling
TTITLE2=Dreaming
TTITLE3=Hummingbird
TTITLE4=Emerald Eyes
TTITLE5=Prison Blues
TTITLE6=Blues Anthem
TTITLE7=Shake My Tree
TTITLE8=Take Me For A Little While
TTITLE9=Since I've Been Loving You
TTITLE10=Wonderful One
TTITLE11=Kashmir
EXTD=
EXTT0=(The firm]\n
EXTT1=(The Firm]\n
EXTT2=(The Firm/Mean Business]\n
EXTT3=Jimmy Page/Outrider\n
EXTT4=Jimmy Page/Uotrider\n
EXTT5=Jimmy Page/Outrider\n
EXTT6=Jimmy Page/Outrider\n
EXTT7=Coverdale and Page\n
EXTT8=Coverdale and Page\n
EXTT9=Page and Plant\n
EXTT10=Page and Plant\n
EXTT11=Page and Plant\n
PLAYORDER=
